#!OML:ASF X:\für Bonn\!DataBase\2005_08_12_Daniel\c3d\Daniel.ASF
:FULLY-SPECIFIED
:DEGREES
31
root 12.4885 16.1314 0.23417 -741.034 -68.6099 736.55
lowerback 6.06269 -10.206 -10.3886
upperback 3.53987 -14.205 -3.15064
thorax 2.05076 -7.3185 2.68475
lowerneck 5.59077 5.43776 -2.34338
upperneck 8.33914 6.94074 -0.744968
head 1.60539 3.26942 0.131118
rclavicle 1.37161e-013 -1.43125e-014
rhumerus -58.8098 -15.5836 -66.9945
rradius 17.3283
rwrist 24.4712
rhand -20.0361 10.6718
rfingers 7.12502
rthumb 6.30499 -19.2144
lclavicle 1.37161e-013 -1.43125e-014
lhumerus -24.2451 18.7214 79.165
lradius 105.244
lwrist 194.624
lhand -11.2775 16.1846
lfingers 7.12502
lthumb 14.7532 45.6396
rfemur -39.4084 8.22093 -3.98771
rtibia 34.0441
rfoot -28.2912 -19.1029
rtoes -13.3255
lfemur 21.5445 -13.4319 -28.0518
ltibia 27.8405
lfoot -37.8461 -3.07909
ltoes -15.0009
32
root 12.3054 16.0946 0.215829 -741.255 -68.5892 736.962
lowerback 5.6983 -10.4853 -10.5675
upperback 3.44172 -14.541 -3.13953
thorax 2.23575 -7.49073 2.70211
lowerneck 5.47048 5.65214 -2.27504
upperneck 8.47412 7.23797 -0.871031
head 1.67487 3.4129 0.0867674
rclavicle -2.2413e-014 -3.26007e-014
rhumerus -59.1677 -15.7925 -66.3658
rradius 17.2236
rwrist 24.0373
rhand -19.5383 11.0341
rfingers 7.12502
rthumb 6.78552 -18.8371
lclavicle -2.2413e-014 -3.26007e-014
lhumerus -24.2986 18.9056 79.2393
lradius 104.949
lwrist 194.406
lhand -11.2258 16.3148
lfingers 7.12502
lthumb 14.8029 45.7661
rfemur -39.7647 7.32003 -3.57079
rtibia 34.4528
rfoot -27.6697 -18.0735
rtoes -12.2532
lfemur 22.1708 -13.4873 -27.994
ltibia 27.4487
lfoot -37.6159 -3.24514
ltoes -14.9834
33
root 12.119 16.0607 0.196279 -741.38 -68.5739 737.313
lowerback 5.29326 -10.7677 -10.6872
upperback 3.33678 -14.8726 -3.14284
thorax 2.41777 -7.6587 2.66536
lowerneck 5.29073 5.8595 -2.12476
upperneck 8.61937 7.53372 -1.00839
head 1.76222 3.55799 0.0286068
rclavicle -8.57259e-014 4.77083e-015
rhumerus -59.5834 -16.1176 -65.5833
rradius 17.1472
rwrist 23.8108
rhand -18.9435 11.3627
rfingers 7.12502
rthumb 7.35969 -18.4893
lclavicle -8.57259e-014 4.77083e-015
lhumerus -24.5025 18.9956 79.2226
lradius 104.649
lwrist 194.189
lhand -11.0663 16.3374
lfingers 7.12502
lthumb 14.9566 45.7773
rfemur -40.177 6.1816 -2.97935
rtibia 35.0399
rfoot -26.728 -16.7888
rtoes -11.2914
lfemur 22.7531 -13.5517 -27.8881
ltibia 27.056
lfoot -37.3761 -3.43999
ltoes -15.0255
34
root 11.9311 16.0311 0.176285 -741.348 -68.5994 737.538
lowerback 4.88558 -11.0595 -10.7583
upperback 3.18408 -15.2154 -3.08945
thorax 2.55595 -7.82782 2.66232
lowerneck 5.13048 6.07441 -2.03463
upperneck 8.73845 7.83623 -1.14288
head 1.8367 3.70502 -0.0196404
rclavicle -4.65405e-014 1.86858e-014
rhumerus -60.017 -16.4864 -64.5545
rradius 17.0543
rwrist 23.8639
rhand -18.3181 11.7016
rfingers 7.12502
rthumb 7.96335 -18.1284
lclavicle -4.65405e-014 1.86858e-014
lhumerus -24.9138 19.0924 79.1715
lradius 104.393
lwrist 193.962
lhand -10.8305 16.2622
lfingers 7.12502
lthumb 15.1838 45.6851
rfemur -40.6149 4.85252 -2.19425
rtibia 35.7128
rfoot -25.3197 -15.2282
rtoes -10.8322
lfemur 23.2474 -13.6264 -27.7259
ltibia 26.7349
lfoot -37.0983 -3.60055
ltoes -15.0834
35
root 11.7411 16.0007 0.154679 -741.154 -68.6453 737.644
lowerback 4.39553 -11.3541 -10.7599
upperback 3.02957 -15.5481 -3.03675
thorax 2.71821 -7.99083 2.60459
lowerneck 5.12249 6.28021 -1.90795
upperneck 8.66854 8.12244 -1.27358
head 1.82657 3.85044 -0.0808369
rclavicle 7.17613e-014 -2.14687e-014
rhumerus -60.4858 -16.9581 -63.404
rradius 16.9983
rwrist 24.0692
rhand -17.7179 12.0516
rfingers 7.12502
rthumb 8.5426 -17.7556
lclavicle 7.17613e-014 -2.14687e-014
lhumerus -25.3981 19.1136 79.0362
lradius 104.106
lwrist 193.754
lhand -10.5766 16.0185
lfingers 7.12502
lthumb 15.4284 45.4227
rfemur -41.1106 3.4845 -1.33419
rtibia 36.3985
rfoot -23.4449 -13.4514
rtoes -10.6158
lfemur 23.6033 -13.6371 -27.4383
ltibia 26.5359
lfoot -36.7521 -3.81988
ltoes -15.1829
36
root 11.5472 15.966 0.131533 -740.826 -68.6999 737.615
lowerback 3.8965 -11.6565 -10.7341
upperback 2.84587 -15.8904 -2.92869
thorax 2.86442 -8.1566 2.58468
lowerneck 5.22258 6.49644 -1.87921
upperneck 8.5027 8.41271 -1.38516
head 1.76297 3.99768 -0.126344
rclavicle 1.2101e-013 -9.14409e-015
rhumerus -60.9513 -17.3811 -62.1592
rradius 16.9898
rwrist 24.3855
rhand -17.2057 12.3162
rfingers 7.12502
rthumb 9.03685 -17.4702
lclavicle 1.2101e-013 -9.14409e-015
lhumerus -25.9509 19.1979 78.9227
lradius 103.732
lwrist 193.5
lhand -10.3738 15.7898
lfingers 7.12502
lthumb 15.6236 45.1789
rfemur -41.6111 2.19047 -0.44837
rtibia 37.0332
rfoot -21.2949 -11.6627
rtoes -10.4871
lfemur 23.8614 -13.6489 -27.0674
ltibia 26.4924
lfoot -36.2927 -4.11721
ltoes -15.2843
